<?xml version="1.0" standalone="no"?>
<!DOCTYPE svg PUBLIC "-//W3C//DTD SVG 20010904//EN"
 "http://www.w3.org/TR/2001/REC-SVG-20010904/DTD/svg10.dtd">
<svg version="1.0" xmlns="http://www.w3.org/2000/svg"
 width="512.000000pt" height="512.000000pt" viewBox="0 0 512.000000 512.000000"
 preserveAspectRatio="xMidYMid meet">
<metadata>
Created by potrace 1.11, written by Peter Selinger 2001-2013
</metadata>
<g transform="translate(0.000000,512.000000) scale(0.100000,-0.100000)"
fill="#000000" stroke="none">
<path d="M0 2560 l0 -2560 2560 0 2560 0 0 2560 0 2560 -2560 0 -2560 0 0
-2560z m3500 825 l0 -125 -27 -6 c-168 -36 -294 -174 -347 -379 -62 -245 -40
-588 50 -768 64 -127 137 -195 253 -234 l66 -22 3 -122 3 -122 -63 6 c-190 18
-391 146 -503 321 -69 109 -122 261 -145 421 -12 90 -12 320 0 410 37 259 154
484 315 603 105 78 259 139 358 141 l37 1 0 -125z m249 109 c90 -22 194 -72
269 -128 34 -26 62 -49 62 -50 0 -1 -47 -44 -104 -94 l-105 -92 -65 49 c-61
46 -142 81 -188 81 -16 0 -18 11 -18 125 l0 125 42 0 c23 0 71 -7 107 -16z
m-2336 -41 c8 -21 72 -186 142 -367 l127 -328 -68 -165 c-37 -90 -70 -160 -74
-156 -7 7 -435 927 -476 1021 l-14 32 174 0 174 0 15 -37z m1027 28 c0 -6
-124 -255 -275 -554 l-275 -544 0 -386 0 -387 -155 0 -155 0 0 318 0 318 244
585 c134 321 250 601 259 622 l16 37 170 0 c100 0 171 -4 171 -9z m1519 -1568
c47 -42 94 -84 104 -93 18 -16 16 -19 -45 -65 -107 -81 -230 -131 -370 -150
l-48 -6 0 129 0 129 41 6 c55 7 157 58 193 96 17 17 32 31 34 31 3 0 43 -35
91 -77z"/>
</g>
</svg>
